<mxfile host="app.diagrams.net" agent="Mozilla/5.0 (Macintosh; Intel Mac OS X 10_15_7) AppleWebKit/537.36 (KHTML, like Gecko) Chrome/134.0.0.0 Safari/537.36" version="26.1.0">
  <diagram name="Page-1" id="Lb7tBCZtK9mgpYrjjlky">
    <mxGraphModel dx="1314" dy="753" grid="1" gridSize="10" guides="1" tooltips="1" connect="1" arrows="1" fold="1" page="1" pageScale="1" pageWidth="827" pageHeight="1169" math="0" shadow="0">
      <root>
        <mxCell id="0" />
        <mxCell id="1" parent="0" />
        <mxCell id="0Q0jQxg_W3pybew-3Bnd-11" value="" style="rounded=0;whiteSpace=wrap;html=1;fillColor=none;" vertex="1" parent="1">
          <mxGeometry x="160" y="240" width="560" height="360" as="geometry" />
        </mxCell>
        <mxCell id="0Q0jQxg_W3pybew-3Bnd-3" value="" style="edgeStyle=orthogonalEdgeStyle;rounded=0;orthogonalLoop=1;jettySize=auto;html=1;" edge="1" parent="1" source="0Q0jQxg_W3pybew-3Bnd-1" target="0Q0jQxg_W3pybew-3Bnd-2">
          <mxGeometry relative="1" as="geometry" />
        </mxCell>
        <mxCell id="0Q0jQxg_W3pybew-3Bnd-12" value="Script URL (Environment Variable)" style="edgeLabel;html=1;align=center;verticalAlign=middle;resizable=0;points=[];" vertex="1" connectable="0" parent="0Q0jQxg_W3pybew-3Bnd-3">
          <mxGeometry x="-0.4" y="1" relative="1" as="geometry">
            <mxPoint as="offset" />
          </mxGeometry>
        </mxCell>
        <mxCell id="0Q0jQxg_W3pybew-3Bnd-1" value="CHECKOUT&lt;br&gt;APPLICATION" style="rounded=0;whiteSpace=wrap;html=1;" vertex="1" parent="1">
          <mxGeometry x="190" y="130" width="120" height="60" as="geometry" />
        </mxCell>
        <mxCell id="0Q0jQxg_W3pybew-3Bnd-5" value="" style="edgeStyle=orthogonalEdgeStyle;rounded=0;orthogonalLoop=1;jettySize=auto;html=1;" edge="1" parent="1" source="0Q0jQxg_W3pybew-3Bnd-2" target="0Q0jQxg_W3pybew-3Bnd-4">
          <mxGeometry relative="1" as="geometry" />
        </mxCell>
        <mxCell id="0Q0jQxg_W3pybew-3Bnd-2" value="Script Load" style="rounded=0;whiteSpace=wrap;html=1;" vertex="1" parent="1">
          <mxGeometry x="190" y="270" width="120" height="60" as="geometry" />
        </mxCell>
        <mxCell id="0Q0jQxg_W3pybew-3Bnd-4" value="Script Load Init" style="rounded=0;whiteSpace=wrap;html=1;" vertex="1" parent="1">
          <mxGeometry x="190" y="410" width="120" height="60" as="geometry" />
        </mxCell>
        <mxCell id="0Q0jQxg_W3pybew-3Bnd-13" style="edgeStyle=orthogonalEdgeStyle;rounded=0;orthogonalLoop=1;jettySize=auto;html=1;entryX=0.5;entryY=0;entryDx=0;entryDy=0;" edge="1" parent="1" source="0Q0jQxg_W3pybew-3Bnd-8" target="0Q0jQxg_W3pybew-3Bnd-9">
          <mxGeometry relative="1" as="geometry" />
        </mxCell>
        <mxCell id="0Q0jQxg_W3pybew-3Bnd-8" value="Component Event Trigger" style="rounded=0;whiteSpace=wrap;html=1;" vertex="1" parent="1">
          <mxGeometry x="420" y="380" width="120" height="60" as="geometry" />
        </mxCell>
        <mxCell id="0Q0jQxg_W3pybew-3Bnd-14" style="edgeStyle=orthogonalEdgeStyle;rounded=0;orthogonalLoop=1;jettySize=auto;html=1;entryX=0.5;entryY=0;entryDx=0;entryDy=0;" edge="1" parent="1" source="0Q0jQxg_W3pybew-3Bnd-9" target="0Q0jQxg_W3pybew-3Bnd-10">
          <mxGeometry relative="1" as="geometry" />
        </mxCell>
        <mxCell id="0Q0jQxg_W3pybew-3Bnd-9" value="Component Event Data Layer Collection" style="rounded=0;whiteSpace=wrap;html=1;" vertex="1" parent="1">
          <mxGeometry x="420" y="480" width="120" height="60" as="geometry" />
        </mxCell>
        <mxCell id="0Q0jQxg_W3pybew-3Bnd-10" value="Analytics Provider Event Fire" style="rounded=0;whiteSpace=wrap;html=1;" vertex="1" parent="1">
          <mxGeometry x="420" y="680" width="120" height="60" as="geometry" />
        </mxCell>
        <mxCell id="0Q0jQxg_W3pybew-3Bnd-15" style="edgeStyle=orthogonalEdgeStyle;rounded=0;orthogonalLoop=1;jettySize=auto;html=1;entryX=0.5;entryY=0;entryDx=0;entryDy=0;" edge="1" parent="1" source="0Q0jQxg_W3pybew-3Bnd-1" target="0Q0jQxg_W3pybew-3Bnd-18">
          <mxGeometry relative="1" as="geometry">
            <mxPoint x="480" y="311" as="targetPoint" />
            <Array as="points">
              <mxPoint x="480" y="160" />
            </Array>
          </mxGeometry>
        </mxCell>
        <mxCell id="0Q0jQxg_W3pybew-3Bnd-17" value="CODE" style="text;html=1;align=center;verticalAlign=middle;whiteSpace=wrap;rounded=0;" vertex="1" parent="1">
          <mxGeometry x="330" y="240" width="60" height="30" as="geometry" />
        </mxCell>
        <mxCell id="0Q0jQxg_W3pybew-3Bnd-19" style="edgeStyle=orthogonalEdgeStyle;rounded=0;orthogonalLoop=1;jettySize=auto;html=1;entryX=0.5;entryY=0;entryDx=0;entryDy=0;" edge="1" parent="1" source="0Q0jQxg_W3pybew-3Bnd-18" target="0Q0jQxg_W3pybew-3Bnd-8">
          <mxGeometry relative="1" as="geometry" />
        </mxCell>
        <mxCell id="0Q0jQxg_W3pybew-3Bnd-20" value="User Action" style="edgeLabel;html=1;align=center;verticalAlign=middle;resizable=0;points=[];" vertex="1" connectable="0" parent="0Q0jQxg_W3pybew-3Bnd-19">
          <mxGeometry x="0.2" y="1" relative="1" as="geometry">
            <mxPoint as="offset" />
          </mxGeometry>
        </mxCell>
        <mxCell id="0Q0jQxg_W3pybew-3Bnd-22" style="edgeStyle=orthogonalEdgeStyle;rounded=0;orthogonalLoop=1;jettySize=auto;html=1;entryX=0;entryY=0.5;entryDx=0;entryDy=0;" edge="1" parent="1" source="0Q0jQxg_W3pybew-3Bnd-18" target="0Q0jQxg_W3pybew-3Bnd-21">
          <mxGeometry relative="1" as="geometry" />
        </mxCell>
        <mxCell id="0Q0jQxg_W3pybew-3Bnd-18" value="Component" style="rounded=0;whiteSpace=wrap;html=1;" vertex="1" parent="1">
          <mxGeometry x="420" y="280" width="120" height="60" as="geometry" />
        </mxCell>
        <mxCell id="0Q0jQxg_W3pybew-3Bnd-21" value="Static HTML Element Tagging" style="rounded=0;whiteSpace=wrap;html=1;" vertex="1" parent="1">
          <mxGeometry x="580" y="280" width="120" height="60" as="geometry" />
        </mxCell>
        <mxCell id="0Q0jQxg_W3pybew-3Bnd-23" value="" style="rounded=0;whiteSpace=wrap;html=1;fillColor=none;" vertex="1" parent="1">
          <mxGeometry x="160" y="1080" width="560" height="290" as="geometry" />
        </mxCell>
        <mxCell id="0Q0jQxg_W3pybew-3Bnd-24" value="" style="edgeStyle=orthogonalEdgeStyle;rounded=0;orthogonalLoop=1;jettySize=auto;html=1;" edge="1" parent="1" source="0Q0jQxg_W3pybew-3Bnd-26" target="0Q0jQxg_W3pybew-3Bnd-28">
          <mxGeometry relative="1" as="geometry" />
        </mxCell>
        <mxCell id="0Q0jQxg_W3pybew-3Bnd-25" value="Script URL (Environment Variable)" style="edgeLabel;html=1;align=center;verticalAlign=middle;resizable=0;points=[];" vertex="1" connectable="0" parent="0Q0jQxg_W3pybew-3Bnd-24">
          <mxGeometry x="-0.4" y="1" relative="1" as="geometry">
            <mxPoint as="offset" />
          </mxGeometry>
        </mxCell>
        <mxCell id="0Q0jQxg_W3pybew-3Bnd-26" value="CHECKOUT&lt;br&gt;APPLICATION" style="rounded=0;whiteSpace=wrap;html=1;" vertex="1" parent="1">
          <mxGeometry x="190" y="970" width="120" height="60" as="geometry" />
        </mxCell>
        <mxCell id="0Q0jQxg_W3pybew-3Bnd-27" value="" style="edgeStyle=orthogonalEdgeStyle;rounded=0;orthogonalLoop=1;jettySize=auto;html=1;" edge="1" parent="1" source="0Q0jQxg_W3pybew-3Bnd-28" target="0Q0jQxg_W3pybew-3Bnd-29">
          <mxGeometry relative="1" as="geometry" />
        </mxCell>
        <mxCell id="0Q0jQxg_W3pybew-3Bnd-28" value="Script Load" style="rounded=0;whiteSpace=wrap;html=1;" vertex="1" parent="1">
          <mxGeometry x="190" y="1110" width="120" height="60" as="geometry" />
        </mxCell>
        <mxCell id="0Q0jQxg_W3pybew-3Bnd-29" value="Script Load Init" style="rounded=0;whiteSpace=wrap;html=1;" vertex="1" parent="1">
          <mxGeometry x="190" y="1250" width="120" height="60" as="geometry" />
        </mxCell>
        <mxCell id="0Q0jQxg_W3pybew-3Bnd-30" style="edgeStyle=orthogonalEdgeStyle;rounded=0;orthogonalLoop=1;jettySize=auto;html=1;entryX=0.5;entryY=0;entryDx=0;entryDy=0;" edge="1" parent="1" source="0Q0jQxg_W3pybew-3Bnd-31" target="0Q0jQxg_W3pybew-3Bnd-33">
          <mxGeometry relative="1" as="geometry" />
        </mxCell>
        <mxCell id="0Q0jQxg_W3pybew-3Bnd-31" value="Component Event Trigger" style="rounded=0;whiteSpace=wrap;html=1;" vertex="1" parent="1">
          <mxGeometry x="420" y="1190" width="120" height="60" as="geometry" />
        </mxCell>
        <mxCell id="0Q0jQxg_W3pybew-3Bnd-32" style="edgeStyle=orthogonalEdgeStyle;rounded=0;orthogonalLoop=1;jettySize=auto;html=1;entryX=0.5;entryY=0;entryDx=0;entryDy=0;" edge="1" parent="1" source="0Q0jQxg_W3pybew-3Bnd-33" target="0Q0jQxg_W3pybew-3Bnd-34">
          <mxGeometry relative="1" as="geometry" />
        </mxCell>
        <mxCell id="0Q0jQxg_W3pybew-3Bnd-33" value="Component Event Data Layer Collection" style="rounded=0;whiteSpace=wrap;html=1;" vertex="1" parent="1">
          <mxGeometry x="420" y="1500" width="120" height="60" as="geometry" />
        </mxCell>
        <mxCell id="0Q0jQxg_W3pybew-3Bnd-34" value="Analytics Provider Event Fire" style="rounded=0;whiteSpace=wrap;html=1;" vertex="1" parent="1">
          <mxGeometry x="420" y="1620" width="120" height="60" as="geometry" />
        </mxCell>
        <mxCell id="0Q0jQxg_W3pybew-3Bnd-35" style="edgeStyle=orthogonalEdgeStyle;rounded=0;orthogonalLoop=1;jettySize=auto;html=1;entryX=0.5;entryY=0;entryDx=0;entryDy=0;" edge="1" parent="1" source="0Q0jQxg_W3pybew-3Bnd-26" target="0Q0jQxg_W3pybew-3Bnd-40">
          <mxGeometry relative="1" as="geometry">
            <mxPoint x="480" y="1151" as="targetPoint" />
            <Array as="points">
              <mxPoint x="480" y="1000" />
            </Array>
          </mxGeometry>
        </mxCell>
        <mxCell id="0Q0jQxg_W3pybew-3Bnd-36" value="CODE" style="text;html=1;align=center;verticalAlign=middle;whiteSpace=wrap;rounded=0;" vertex="1" parent="1">
          <mxGeometry x="330" y="1080" width="60" height="30" as="geometry" />
        </mxCell>
        <mxCell id="0Q0jQxg_W3pybew-3Bnd-37" style="edgeStyle=orthogonalEdgeStyle;rounded=0;orthogonalLoop=1;jettySize=auto;html=1;entryX=0.5;entryY=0;entryDx=0;entryDy=0;" edge="1" parent="1" source="0Q0jQxg_W3pybew-3Bnd-40" target="0Q0jQxg_W3pybew-3Bnd-31">
          <mxGeometry relative="1" as="geometry" />
        </mxCell>
        <mxCell id="0Q0jQxg_W3pybew-3Bnd-38" value="User Action" style="edgeLabel;html=1;align=center;verticalAlign=middle;resizable=0;points=[];" vertex="1" connectable="0" parent="0Q0jQxg_W3pybew-3Bnd-37">
          <mxGeometry x="0.2" y="1" relative="1" as="geometry">
            <mxPoint as="offset" />
          </mxGeometry>
        </mxCell>
        <mxCell id="0Q0jQxg_W3pybew-3Bnd-39" style="edgeStyle=orthogonalEdgeStyle;rounded=0;orthogonalLoop=1;jettySize=auto;html=1;entryX=0;entryY=0.5;entryDx=0;entryDy=0;" edge="1" parent="1" source="0Q0jQxg_W3pybew-3Bnd-40" target="0Q0jQxg_W3pybew-3Bnd-41">
          <mxGeometry relative="1" as="geometry" />
        </mxCell>
        <mxCell id="0Q0jQxg_W3pybew-3Bnd-40" value="Component" style="rounded=0;whiteSpace=wrap;html=1;" vertex="1" parent="1">
          <mxGeometry x="420" y="1100" width="120" height="60" as="geometry" />
        </mxCell>
        <mxCell id="0Q0jQxg_W3pybew-3Bnd-41" value="Static HTML Element Tagging" style="rounded=0;whiteSpace=wrap;html=1;" vertex="1" parent="1">
          <mxGeometry x="570" y="1100" width="120" height="60" as="geometry" />
        </mxCell>
      </root>
    </mxGraphModel>
  </diagram>
</mxfile>
